<mxfile host="app.diagrams.net" modified="2023-06-19T06:10:47.945Z" agent="Mozilla/5.0 (Windows NT 10.0; Win64; x64) AppleWebKit/537.36 (KHTML, like Gecko) Chrome/114.0.0.0 Safari/537.36 Edg/114.0.1823.41" etag="iSArctcvGxtahbiVF1_x" version="21.4.0" type="github">
  <diagram name="第 1 页" id="mgrscL694AibpdRCwD92">
    <mxGraphModel dx="1386" dy="838" grid="1" gridSize="10" guides="1" tooltips="1" connect="1" arrows="1" fold="1" page="1" pageScale="1" pageWidth="1654" pageHeight="2336" math="0" shadow="0">
      <root>
        <mxCell id="0" />
        <mxCell id="1" parent="0" />
        <mxCell id="ydO3FBjdRYk_wp6HaoCE-6" style="edgeStyle=orthogonalEdgeStyle;rounded=0;orthogonalLoop=1;jettySize=auto;html=1;exitX=0.5;exitY=1;exitDx=0;exitDy=0;entryX=0.5;entryY=0;entryDx=0;entryDy=0;" edge="1" parent="1" source="ydO3FBjdRYk_wp6HaoCE-1" target="ydO3FBjdRYk_wp6HaoCE-2">
          <mxGeometry relative="1" as="geometry" />
        </mxCell>
        <mxCell id="ydO3FBjdRYk_wp6HaoCE-8" style="edgeStyle=orthogonalEdgeStyle;rounded=0;orthogonalLoop=1;jettySize=auto;html=1;" edge="1" parent="1" target="ydO3FBjdRYk_wp6HaoCE-4">
          <mxGeometry relative="1" as="geometry">
            <mxPoint x="970" y="290" as="sourcePoint" />
          </mxGeometry>
        </mxCell>
        <mxCell id="ydO3FBjdRYk_wp6HaoCE-9" style="edgeStyle=orthogonalEdgeStyle;rounded=0;orthogonalLoop=1;jettySize=auto;html=1;exitX=0.5;exitY=1;exitDx=0;exitDy=0;entryX=0.5;entryY=0;entryDx=0;entryDy=0;" edge="1" parent="1" source="ydO3FBjdRYk_wp6HaoCE-1" target="ydO3FBjdRYk_wp6HaoCE-5">
          <mxGeometry relative="1" as="geometry" />
        </mxCell>
        <mxCell id="ydO3FBjdRYk_wp6HaoCE-14" style="edgeStyle=orthogonalEdgeStyle;rounded=0;orthogonalLoop=1;jettySize=auto;html=1;" edge="1" parent="1" target="ydO3FBjdRYk_wp6HaoCE-3">
          <mxGeometry relative="1" as="geometry">
            <mxPoint x="970" y="290" as="sourcePoint" />
          </mxGeometry>
        </mxCell>
        <mxCell id="ydO3FBjdRYk_wp6HaoCE-1" value="1.6.3 数据可视化设计与展示单元" style="rounded=1;whiteSpace=wrap;html=1;" vertex="1" parent="1">
          <mxGeometry x="910" y="180" width="120" height="60" as="geometry" />
        </mxCell>
        <mxCell id="ydO3FBjdRYk_wp6HaoCE-26" style="edgeStyle=orthogonalEdgeStyle;rounded=0;orthogonalLoop=1;jettySize=auto;html=1;exitX=0;exitY=0.5;exitDx=0;exitDy=0;entryX=0;entryY=0;entryDx=0;entryDy=25;entryPerimeter=0;dashed=1;opacity=50;" edge="1" parent="1" source="ydO3FBjdRYk_wp6HaoCE-2" target="ydO3FBjdRYk_wp6HaoCE-15">
          <mxGeometry relative="1" as="geometry" />
        </mxCell>
        <mxCell id="ydO3FBjdRYk_wp6HaoCE-2" value="&lt;b&gt;1.6.3.1&amp;nbsp; 创建数据面板&lt;br&gt;&lt;br&gt;&lt;/b&gt;" style="rounded=1;whiteSpace=wrap;html=1;" vertex="1" parent="1">
          <mxGeometry x="480" y="340" width="120" height="60" as="geometry" />
        </mxCell>
        <mxCell id="ydO3FBjdRYk_wp6HaoCE-19" style="edgeStyle=orthogonalEdgeStyle;rounded=0;orthogonalLoop=1;jettySize=auto;html=1;entryX=0;entryY=0;entryDx=60;entryDy=80;entryPerimeter=0;exitX=0;exitY=0;exitDx=60;exitDy=80;exitPerimeter=0;" edge="1" parent="1" source="ydO3FBjdRYk_wp6HaoCE-15" target="ydO3FBjdRYk_wp6HaoCE-15">
          <mxGeometry relative="1" as="geometry">
            <mxPoint x="620" y="180" as="targetPoint" />
          </mxGeometry>
        </mxCell>
        <mxCell id="ydO3FBjdRYk_wp6HaoCE-27" style="edgeStyle=orthogonalEdgeStyle;rounded=0;orthogonalLoop=1;jettySize=auto;html=1;entryX=0;entryY=0;entryDx=0;entryDy=25;entryPerimeter=0;dashed=1;opacity=50;exitX=0;exitY=0.5;exitDx=0;exitDy=0;" edge="1" parent="1" source="ydO3FBjdRYk_wp6HaoCE-3" target="ydO3FBjdRYk_wp6HaoCE-15">
          <mxGeometry relative="1" as="geometry" />
        </mxCell>
        <mxCell id="ydO3FBjdRYk_wp6HaoCE-30" value="实现页面" style="edgeLabel;html=1;align=center;verticalAlign=middle;resizable=0;points=[];" vertex="1" connectable="0" parent="ydO3FBjdRYk_wp6HaoCE-27">
          <mxGeometry x="0.7545" y="-2" relative="1" as="geometry">
            <mxPoint y="-7" as="offset" />
          </mxGeometry>
        </mxCell>
        <mxCell id="ydO3FBjdRYk_wp6HaoCE-3" value="1.6.3.2&amp;nbsp; 数据面板基础功能" style="rounded=1;whiteSpace=wrap;html=1;" vertex="1" parent="1">
          <mxGeometry x="760" y="340" width="120" height="60" as="geometry" />
        </mxCell>
        <mxCell id="ydO3FBjdRYk_wp6HaoCE-28" style="edgeStyle=orthogonalEdgeStyle;rounded=0;orthogonalLoop=1;jettySize=auto;html=1;exitX=1;exitY=0.5;exitDx=0;exitDy=0;entryX=0;entryY=0;entryDx=120;entryDy=25;entryPerimeter=0;dashed=1;opacity=50;" edge="1" parent="1" source="ydO3FBjdRYk_wp6HaoCE-4" target="ydO3FBjdRYk_wp6HaoCE-15">
          <mxGeometry relative="1" as="geometry">
            <mxPoint x="1180" y="50" as="targetPoint" />
          </mxGeometry>
        </mxCell>
        <mxCell id="ydO3FBjdRYk_wp6HaoCE-4" value="1.6.3.3&amp;nbsp; 组件基础功能" style="rounded=1;whiteSpace=wrap;html=1;" vertex="1" parent="1">
          <mxGeometry x="1040" y="340" width="120" height="60" as="geometry" />
        </mxCell>
        <mxCell id="ydO3FBjdRYk_wp6HaoCE-21" style="edgeStyle=orthogonalEdgeStyle;rounded=0;orthogonalLoop=1;jettySize=auto;html=1;entryX=0;entryY=0;entryDx=120;entryDy=25;entryPerimeter=0;dashed=1;exitX=1;exitY=0.5;exitDx=0;exitDy=0;strokeColor=default;opacity=50;" edge="1" parent="1" source="ydO3FBjdRYk_wp6HaoCE-5" target="ydO3FBjdRYk_wp6HaoCE-15">
          <mxGeometry relative="1" as="geometry">
            <mxPoint x="620" y="190" as="targetPoint" />
            <Array as="points">
              <mxPoint x="1470" y="370" />
              <mxPoint x="1470" y="45" />
            </Array>
          </mxGeometry>
        </mxCell>
        <mxCell id="ydO3FBjdRYk_wp6HaoCE-29" value="实现页面" style="edgeLabel;html=1;align=center;verticalAlign=middle;resizable=0;points=[];" vertex="1" connectable="0" parent="ydO3FBjdRYk_wp6HaoCE-21">
          <mxGeometry x="0.7366" y="-3" relative="1" as="geometry">
            <mxPoint as="offset" />
          </mxGeometry>
        </mxCell>
        <mxCell id="ydO3FBjdRYk_wp6HaoCE-5" value="1.6.3.4&amp;nbsp; 视图组件" style="rounded=1;whiteSpace=wrap;html=1;" vertex="1" parent="1">
          <mxGeometry x="1320" y="340" width="120" height="60" as="geometry" />
        </mxCell>
        <mxCell id="ydO3FBjdRYk_wp6HaoCE-15" value="TwinsPlatform 数据看板" style="shape=callout;whiteSpace=wrap;html=1;perimeter=calloutPerimeter;" vertex="1" parent="1">
          <mxGeometry x="900" y="20" width="120" height="80" as="geometry" />
        </mxCell>
        <mxCell id="ydO3FBjdRYk_wp6HaoCE-34" value="&lt;ol style=&quot;text-align: left;&quot;&gt;&lt;li&gt;未保存时离开页面提示是否保存&lt;/li&gt;&lt;li&gt;顶部工具栏提供&amp;nbsp;清空画布、重做、撤销、全屏预览、数据面板样式&lt;/li&gt;&lt;li&gt;外部参数设置&lt;br&gt;&lt;/li&gt;&lt;li&gt;辅助设计风格&lt;br&gt;&lt;/li&gt;&lt;li&gt;&lt;p class=&quot;MsoNormal&quot;&gt;批量操作&lt;/p&gt;&lt;/li&gt;&lt;li&gt;&lt;p class=&quot;MsoNormal&quot;&gt;复用&lt;/p&gt;&lt;/li&gt;&lt;/ol&gt;" style="shape=note;whiteSpace=wrap;html=1;backgroundOutline=1;darkOpacity=0.05;" vertex="1" parent="1">
          <mxGeometry x="731" y="510" width="192" height="240" as="geometry" />
        </mxCell>
        <mxCell id="ydO3FBjdRYk_wp6HaoCE-35" value="&lt;ol&gt;&lt;li style=&quot;text-align: justify;&quot;&gt;通过&amp;nbsp; 1.6.3.2&amp;nbsp; 1.6.3.3&amp;nbsp; 1.6.3.4 将多个图表和图形组合在一个页面上，以便更好地理解和分析数据&lt;/li&gt;&lt;/ol&gt;" style="shape=note;whiteSpace=wrap;html=1;backgroundOutline=1;darkOpacity=0.05;" vertex="1" parent="1">
          <mxGeometry x="480" y="510" width="136" height="170" as="geometry" />
        </mxCell>
        <mxCell id="ydO3FBjdRYk_wp6HaoCE-36" value="&lt;ol&gt;&lt;li&gt;&lt;p class=&quot;MsoNormal&quot;&gt;编辑&lt;/p&gt;&lt;/li&gt;&lt;li&gt;&lt;p class=&quot;MsoNormal&quot;&gt;复制&lt;/p&gt;&lt;/li&gt;&lt;li&gt;&lt;p class=&quot;MsoNormal&quot;&gt;删除&lt;/p&gt;&lt;/li&gt;&lt;li&gt;&lt;p class=&quot;MsoNormal&quot;&gt;分布式调整&lt;/p&gt;&lt;/li&gt;&lt;li&gt;&lt;p class=&quot;MsoNormal&quot;&gt;组件位置及大小调整&lt;/p&gt;&lt;/li&gt;&lt;li&gt;&lt;p class=&quot;MsoNormal&quot;&gt;联动设置&lt;/p&gt;&lt;/li&gt;&lt;li&gt;&lt;p class=&quot;MsoNormal&quot;&gt;组件样式&lt;/p&gt;&lt;/li&gt;&lt;li&gt;&lt;p class=&quot;MsoNormal&quot;&gt;超链接&lt;/p&gt;&lt;/li&gt;&lt;/ol&gt;" style="shape=note;whiteSpace=wrap;html=1;backgroundOutline=1;darkOpacity=0.05;" vertex="1" parent="1">
          <mxGeometry x="1030" y="510" width="184" height="230" as="geometry" />
        </mxCell>
      </root>
    </mxGraphModel>
  </diagram>
</mxfile>
